<svg width="113" height="50" viewBox="0 0 113 50" fill="none" xmlns="http://www.w3.org/2000/svg">
<path d="M27.9995 48C-7 48 -8.0009 1 27.9997 1" stroke="white" stroke-width="2"/>
<path d="M70.287 42.1672C60.653 32.5332 60.653 16.8592 70.287 7.22524C79.921 -2.40874 95.5949 -2.40874 105.229 7.22524C114.863 16.8592 114.863 32.5332 105.229 42.1672C95.5949 51.8012 79.921 51.8012 70.287 42.1672ZM104.065 8.38966C95.0725 -0.602368 80.4435 -0.602368 71.4538 8.38966C62.4618 17.3817 62.4618 32.0107 71.4538 41.0004C80.4458 49.9925 95.0748 49.9925 104.065 41.0004C113.057 32.0084 113.057 17.3794 104.065 8.38966Z" fill="white"/>
<path d="M104.334 19.4553C104.247 19.3686 104.177 19.2585 104.137 19.1366C103.282 16.6063 101.886 14.3642 99.9879 12.4664C98.0925 10.571 95.8481 9.17465 93.3177 8.31715C92.9827 8.20235 92.7578 7.89075 92.7578 7.53697V1.53213C92.7578 1.2791 92.8749 1.04012 93.0741 0.883148C93.2755 0.726174 93.5356 0.672291 93.7793 0.733206C98.1043 1.81562 102.064 4.06011 105.227 7.22536C108.39 10.3906 110.634 14.3478 111.717 18.6728C111.777 18.9188 111.721 19.1788 111.567 19.3803C111.41 19.5818 111.171 19.6966 110.918 19.6966H104.913C104.688 19.6966 104.482 19.6052 104.329 19.4529L104.334 19.4553ZM101.152 11.302C103.088 13.2372 104.547 15.5052 105.498 18.0495H109.842C108.75 14.4134 106.766 11.0911 104.065 8.38978C101.363 5.68843 98.041 3.704 94.4072 2.61455V6.95828C96.9516 7.90715 99.2195 9.36677 101.155 11.3043L101.152 11.302Z" fill="white"/>
<path d="M70.2868 42.1674C67.1239 39.0045 64.877 35.045 63.7946 30.72C63.7337 30.474 63.7899 30.2139 63.9446 30.0148C64.1015 29.8133 64.3405 29.6985 64.5935 29.6985H70.5984C70.9521 29.6985 71.2661 29.9234 71.3786 30.2584C72.2337 32.7888 73.6301 35.0309 75.5278 36.9287C77.4232 38.8241 79.6677 40.2204 82.198 41.0779C82.5331 41.1904 82.7579 41.5043 82.7579 41.8581V47.863C82.7579 48.116 82.6408 48.355 82.4417 48.5119C82.2402 48.6689 81.9801 48.7228 81.7341 48.6619C77.4092 47.5795 73.452 45.335 70.2868 42.1721V42.1674ZM65.6736 31.3432C66.7654 34.9794 68.7498 38.3016 71.4512 41.003C74.1525 43.7043 77.4748 45.6888 81.1109 46.7805V42.4368C78.5666 41.4879 76.2986 40.0283 74.3634 38.0931C72.4282 36.1579 70.9685 33.8899 70.0173 31.3455H65.6736V31.3432Z" fill="white"/>
<path d="M92.9991 48.4414C92.8445 48.2868 92.7578 48.0783 92.7578 47.8581V41.8532C92.7578 41.4994 92.9827 41.1855 93.3177 41.073C95.848 40.2179 98.0902 38.8215 99.9879 36.9238C101.886 35.026 103.28 32.7839 104.137 30.2535C104.25 29.9185 104.564 29.6936 104.917 29.6936H110.922C111.175 29.6936 111.414 29.8107 111.571 30.0099C111.728 30.209 111.782 30.4714 111.721 30.7151C110.636 35.0401 108.392 38.9972 105.229 42.1625C102.066 45.3277 98.1066 47.5722 93.7816 48.6546C93.5356 48.7156 93.2755 48.6593 93.0764 48.5047C93.0506 48.4813 93.0249 48.4602 93.0014 48.4368L92.9991 48.4414ZM94.4048 42.4343V46.778C98.041 45.6862 101.363 43.7018 104.065 41.0004C106.766 38.2991 108.748 34.9768 109.842 31.3407H105.498C104.55 33.885 103.09 36.1506 101.152 38.0882C99.2171 40.0234 96.9492 41.4854 94.4048 42.4343Z" fill="white"/>
<path d="M64.0105 19.4552C63.9871 19.4317 63.9637 19.406 63.9449 19.3802C63.7879 19.181 63.7341 18.9186 63.795 18.6726C64.8774 14.3476 67.1219 10.3881 70.2871 7.22524C73.4524 4.06233 77.4095 1.8155 81.7346 0.733082C81.9806 0.672167 82.2406 0.728393 82.4398 0.883024C82.6389 1.04 82.7561 1.27898 82.7561 1.53201V7.53685C82.7561 7.89063 82.5312 8.20457 82.1961 8.31703C79.6658 9.17219 77.4236 10.5686 75.5258 12.4663C73.6304 14.3617 72.2341 16.6062 71.3766 19.1365C71.2641 19.4716 70.9502 19.6965 70.5964 19.6965H64.5916C64.3713 19.6965 64.1605 19.6098 64.0082 19.4575L64.0105 19.4552ZM81.109 2.61443C77.4728 3.70622 74.1506 5.69065 71.4492 8.39201C68.7478 11.0934 66.7658 14.4156 65.6716 18.0518H70.0154C70.9642 15.5074 72.4238 13.2418 74.3614 11.3042C76.2967 9.36899 78.5646 7.90937 81.109 6.95816V2.61443Z" fill="white"/>
<path d="M101.154 11.3019C93.7695 3.91714 81.7505 3.9148 74.3657 11.3019C66.9785 18.6891 66.9808 30.7058 74.3657 38.0906C81.7505 45.4754 93.7671 45.4777 101.154 38.0906C108.541 30.7034 108.539 18.6867 101.154 11.3019Z" fill="white"/>
<path d="M94.5894 31.4573L80.9822 31.5476C80.409 31.5514 79.9474 32.0191 79.9512 32.5923L79.9544 33.0773C79.9582 33.6505 80.426 34.1121 80.9992 34.1083L94.6064 34.018C95.1796 34.0142 95.6412 33.5465 95.6374 32.9733L95.6342 32.4883C95.6304 31.9151 95.1626 31.4535 94.5894 31.4573Z" fill="#110A1D"/>
<path d="M82.836 23.2437C82.6884 23.2437 82.5385 23.2109 82.4026 23.1453L81.3412 22.6322C80.8797 22.4073 80.6688 21.8614 80.8609 21.3858L81.3483 20.1722C81.4982 19.802 81.852 19.5607 82.2503 19.5583C82.4213 19.5583 82.59 19.6005 82.7399 19.6872L84.0051 20.4088C84.2417 20.5424 84.4128 20.7743 84.4737 21.0414C84.5346 21.3085 84.4807 21.5896 84.3261 21.8146L83.6326 22.8197C83.4522 23.0821 83.1523 23.2414 82.8337 23.2414L82.836 23.2437Z" fill="#110A1D"/>
<path d="M92.6325 23.1783C92.3139 23.1783 92.0117 23.026 91.8289 22.7659L91.1425 21.7983C90.9832 21.5757 90.9269 21.2946 90.9832 21.0275C91.0394 20.7604 91.2081 20.5261 91.4447 20.3879L92.7497 19.6217C92.8973 19.5351 93.066 19.4882 93.237 19.4859C93.6353 19.4835 93.9938 19.7201 94.1484 20.088L94.6404 21.2665C94.8372 21.7397 94.6334 22.2903 94.1765 22.5199L93.066 23.0752C92.9325 23.1408 92.7825 23.1783 92.6349 23.1783H92.6325Z" fill="#110A1D"/>
<path d="M81.7666 30.6378C81.1692 30.6425 80.6327 30.2676 80.4288 29.7053L78.1586 23.4568C78.0133 23.5271 77.8587 23.581 77.7017 23.6208C77.5166 23.6677 77.3292 23.6911 77.1394 23.6911C77.0293 23.6911 76.9215 23.6864 76.8161 23.6724C75.6329 23.5224 74.7356 22.508 74.7286 21.3131C74.7192 19.9917 75.7875 18.9093 77.1089 18.8999C78.4303 18.8905 79.5128 19.9589 79.5198 21.2803C79.5198 21.5849 79.4682 21.8777 79.3605 22.1518C79.3019 22.3018 79.2293 22.4447 79.1449 22.5806L83.4629 24.6705L86.7664 19.8839C86.6282 19.8253 86.4946 19.7527 86.3681 19.666C86.1291 19.5044 85.9206 19.3029 85.7519 19.0662C85.4661 18.6633 85.3114 18.1877 85.3091 17.6956C85.2997 16.3743 86.3681 15.2918 87.6895 15.2825C87.7481 15.2825 87.809 15.2825 87.8675 15.2872C89.0507 15.3668 90.0066 16.3157 90.0933 17.4988C90.1331 18.0588 89.9855 18.5953 89.6669 19.0522C89.4982 19.2912 89.292 19.495 89.0554 19.6567C88.9312 19.7433 88.7977 19.816 88.6594 19.8745L92.0215 24.6119L96.2692 22.4869C96.1895 22.3346 96.1263 22.1753 96.0794 22.0089C96.0232 21.8074 95.9927 21.5966 95.9927 21.3834C95.9927 21.2873 95.9974 21.1913 96.0068 21.0975C96.1426 19.8933 97.1595 18.9796 98.3707 18.9725C99.6921 18.9632 100.774 20.0315 100.782 21.3529C100.791 22.6134 99.8116 23.6724 98.5535 23.7591L98.4035 23.7637C98.1599 23.7637 97.9209 23.7309 97.689 23.6607C97.539 23.6138 97.3937 23.5552 97.2579 23.4803L95.1258 29.6069C94.9314 30.1716 94.3972 30.5511 93.7997 30.5558L81.7666 30.6355V30.6378Z" fill="#110A1D"/>
<path d="M28.0087 0.188873H87.1259C87.6147 0.188873 88.0057 0.585057 88.0057 1.06869C88.0057 1.55233 87.6096 1.5 87.1259 1.5L28.0087 1.94849C27.5199 1.94849 27.1289 1.55233 27.1289 1.06869C27.1289 0.585057 27.5251 0.188873 28.0087 0.188873Z" fill="white"/>
<path d="M27.8816 47L80 47.5L87 48C87.4898 48 88 47.9503 88 48.5C88 49.0497 87.6031 49 87.1184 49H27.8816C27.3918 49 27 48.5497 27 48C27 47.4503 27.397 47 27.8816 47Z" fill="white"/>
</svg>