<svg width="109" height="50" viewBox="0 0 109 50" fill="none" xmlns="http://www.w3.org/2000/svg">
<g id="World">
<g id="Group">
<path id="Vector" d="M24.5843 49.3894C11.0784 49.3894 0.0884399 38.3994 0.0884399 24.8935C0.0884399 11.3877 11.0784 0.397724 24.5843 0.397724C38.0902 0.397724 49.0801 11.3877 49.0801 24.8935C49.0801 38.3994 38.0902 49.3894 24.5843 49.3894ZM24.5843 2.16249C12.0508 2.16249 1.85321 12.3601 1.85321 24.8935C1.85321 37.427 12.0508 47.6246 24.5843 47.6246C37.1177 47.6246 47.3153 37.427 47.3153 24.8935C47.3153 12.3601 37.1177 2.16249 24.5843 2.16249Z" fill="#478BF9"/>
<path id="Vector_2" d="M84.4681 49.3906C83.9793 49.3906 83.5883 48.9944 83.5883 48.5108C83.5883 48.0271 83.9844 47.631 84.4681 47.631C97.0015 47.631 107.199 37.4334 107.199 24.8999C107.199 12.3664 97.0015 2.16885 84.4681 2.16885C83.9793 2.16885 83.5883 1.77266 83.5883 1.28902C83.5883 0.805386 83.9844 0.409233 84.4681 0.409233C97.974 0.409233 108.964 11.3992 108.964 24.9051C108.964 38.4109 97.974 49.4009 84.4681 49.4009V49.3906Z" fill="#478BF9"/>
<g id="Group_2">
<path id="Vector_3" d="M48.8818 23.9211H38.1542V26.0358H48.8818V23.9211Z" fill="#478BF9"/>
<path id="Vector_4" d="M11.9456 23.9211H1.21802V26.0358H11.9456V23.9211Z" fill="#478BF9"/>
<path id="Vector_5" d="M26.2756 38.2451H24.161V48.9727H26.2756V38.2451Z" fill="#478BF9"/>
<path id="Vector_6" d="M26.2756 0.984131H24.161V11.7117H26.2756V0.984131Z" fill="#478BF9"/>
<path id="Vector_7" d="M37.8303 11.5574C30.4934 4.22046 18.5927 4.22046 11.2507 11.5574C3.91376 18.8943 3.91376 30.7949 11.2507 38.137C18.5876 45.4739 30.4882 45.4739 37.8303 38.137C45.1672 30.8001 45.1672 18.8994 37.8303 11.5574ZM28.1729 13.1472C30.3133 13.8109 32.2324 15.0509 33.7245 16.7385L34.0126 17.0626L33.5907 17.1604C32.4742 17.4228 31.2806 17.6389 30.0457 17.7984L29.8245 17.8293L29.7628 17.6132C29.557 16.9083 29.3151 16.2291 29.0373 15.6014C28.6926 14.8142 28.3067 14.1248 27.8848 13.5434L27.4217 12.9105L28.1729 13.1421V13.1472ZM19.5857 24.2606L19.596 23.9931C19.6475 22.3672 19.8276 20.8134 20.1363 19.3831L20.1826 19.1567L20.4141 19.1773C23.1204 19.4139 26.012 19.4037 28.7029 19.1516L28.9344 19.131L28.9859 19.3574C29.2997 20.8031 29.4798 22.3621 29.5261 23.9931V24.2606H19.5909H19.5857ZM29.5261 25.4543V25.7219C29.4695 27.3529 29.2894 28.9118 28.9756 30.3576L28.9241 30.584L28.6926 30.5634C26.0017 30.3113 23.1102 30.3061 20.4038 30.5377L20.1723 30.5582L20.126 30.3318C19.8173 28.9015 19.6372 27.3529 19.5857 25.7219L19.5754 25.4543H29.5158H29.5261ZM24.5559 12.6996C26.0532 12.6996 27.5761 14.5981 28.5279 17.6595L28.6257 17.9682L28.3015 17.9939C27.0359 18.1019 25.729 18.1585 24.417 18.1585C23.1976 18.1585 21.9834 18.1122 20.8 18.0145L20.4758 17.9888L20.5736 17.6749C21.5254 14.6033 23.0536 12.6945 24.5559 12.6945V12.6996ZM15.3359 16.7951C16.8383 15.0818 18.7728 13.8212 20.9389 13.1524L21.6953 12.9208L21.227 13.5588C20.8051 14.1351 20.4141 14.8297 20.0745 15.6117C19.8018 16.2291 19.5549 16.9186 19.3388 17.6595L19.2771 17.8704L19.0558 17.8447C17.8107 17.6904 16.6067 17.4845 15.4748 17.2221L15.0478 17.1244L15.3359 16.7951ZM12.3312 23.9828C12.4752 21.9762 13.1184 20.0211 14.1937 18.318L14.2966 18.1585L14.4818 18.2048C15.799 18.5393 17.219 18.8068 18.7111 18.9972L18.9889 19.0332L18.9323 19.311C18.6236 20.8031 18.4487 22.3827 18.4024 24.0085V24.2606H12.3157L12.3363 23.9828H12.3312ZM14.2966 31.5564L14.1937 31.3969C13.1184 29.699 12.4752 27.7387 12.3312 25.7321L12.3106 25.4543H18.3921V25.7064C18.4435 27.3323 18.6236 28.917 18.9272 30.4039L18.9838 30.6817L18.7059 30.7177C17.219 30.9081 15.7938 31.1757 14.4767 31.5101L14.2914 31.5564H14.2966ZM20.9389 36.5677C18.7728 35.8988 16.8383 34.6383 15.3359 32.925L15.0478 32.5957L15.4748 32.4979C16.6067 32.2407 17.8107 32.0297 19.0558 31.8754L19.2771 31.8497L19.3388 32.0606C19.5549 32.8015 19.8018 33.491 20.0745 34.1084C20.4193 34.8956 20.8051 35.585 21.227 36.1664L21.6953 36.8044L20.9389 36.5729V36.5677ZM24.5559 37.0153C23.0536 37.0153 21.5254 35.1065 20.5736 32.0349L20.4758 31.721L20.8 31.6953C23.2542 31.4998 25.8679 31.5049 28.3015 31.7159L28.6257 31.7416L28.5279 32.0503C27.5709 35.1065 26.048 37.0102 24.5559 37.0102V37.0153ZM33.7245 32.9764C32.2324 34.664 30.3081 35.904 28.1729 36.5677L27.4217 36.7992L27.8848 36.1664C28.3067 35.5902 28.6926 34.8956 29.0373 34.1084C29.31 33.4755 29.557 32.8015 29.7628 32.0966L29.8245 31.8805L30.0457 31.9114C31.2806 32.0709 32.4742 32.287 33.5907 32.5494L34.0126 32.6523L33.7245 32.9764ZM36.7755 25.7321C36.6315 27.7593 35.9781 29.7402 34.877 31.4586L34.7741 31.6181L34.5889 31.5718C33.2872 31.2271 31.8722 30.9544 30.3905 30.7537L30.1126 30.7177L30.1692 30.4451C30.4779 28.953 30.658 27.3631 30.7043 25.7116V25.4594H36.791L36.7704 25.7373L36.7755 25.7321ZM30.7146 24.2606V24.0085C30.6632 22.3569 30.4831 20.762 30.1744 19.275L30.1178 19.0024L30.3956 18.9663C31.8774 18.7657 33.2871 18.493 34.594 18.1482L34.7792 18.102L34.8821 18.2615C35.9832 19.9799 36.6417 21.9556 36.7807 23.988L36.8013 24.2658H30.7198L30.7146 24.2606Z" fill="#478BF9"/>
</g>
</g>
<g id="Group_3">
<path id="Vector_8" d="M84.8386 49.4202L25.7214 49.4202C25.2327 49.4202 24.8416 49.024 24.8416 48.5403C24.8416 48.0567 25.2378 47.6605 25.7214 47.6605L84.8386 47.6605C85.3274 47.6605 85.7185 48.0567 85.7185 48.5403C85.7185 49.024 85.3223 49.4202 84.8386 49.4202Z" fill="#478BF9"/>
</g>
<g id="Group_4">
<path id="Vector_9" d="M84.9725 2.18872L25.8553 2.18872C25.3665 2.18872 24.9755 1.79257 24.9755 1.30893C24.9755 0.825289 25.3716 0.429104 25.8553 0.429104L84.9725 0.429104C85.4613 0.429104 85.8523 0.825289 85.8523 1.30893C85.8523 1.79257 85.4561 2.18872 84.9725 2.18872Z" fill="#478BF9"/>
</g>
</g>
</svg>
