<svg width="101" height="101" viewBox="0 0 101 101" fill="none" xmlns="http://www.w3.org/2000/svg">
<g id="Crown">
<path id="Vector" d="M14.8281 85.4517C-4.66161 65.962 -4.66161 34.2533 14.8281 14.7635C34.3178 -4.72619 66.0265 -4.72619 85.5163 14.7635C105.006 34.2533 105.006 65.962 85.5163 85.4517C66.0265 104.941 34.3178 104.941 14.8281 85.4517ZM83.1606 17.1192C64.9696 -1.07187 35.3748 -1.07187 17.1885 17.1192C-1.00256 35.3102 -1.00256 64.905 17.1885 83.0913C35.3795 101.282 64.9743 101.282 83.1606 83.0913C101.352 64.9003 101.352 35.3055 83.1606 17.1192Z" fill="white"/>
<g id="Group">
<path id="Vector_2" d="M83.7001 39.5049C83.5247 39.3295 83.3826 39.1068 83.302 38.8603C81.572 33.7414 78.7471 29.2055 74.9079 25.3663C71.0735 21.5319 66.5328 18.707 61.4139 16.9723C60.7361 16.74 60.2811 16.1097 60.2811 15.394V3.24606C60.2811 2.73417 60.5181 2.25071 60.921 1.93315C61.3286 1.61559 61.8547 1.50658 62.3476 1.62982C71.0972 3.81957 79.1073 8.36021 85.5059 14.7636C91.9045 21.1669 96.4452 29.1723 98.635 37.9218C98.7582 38.4195 98.6444 38.9456 98.3316 39.3532C98.014 39.7608 97.5306 39.9931 97.0187 39.9931H84.8708C84.4158 39.9931 83.9987 39.8082 83.6906 39.5002L83.7001 39.5049ZM77.2635 23.0107C81.1785 26.9257 84.1314 31.5137 86.0557 36.6611H94.8432C92.6345 29.305 88.6199 22.5841 83.155 17.1192C77.6901 11.6543 70.9692 7.63978 63.6179 5.43581V14.2233C68.7652 16.1428 73.3533 19.0957 77.2683 23.0154L77.2635 23.0107Z" fill="white"/>
<path id="Vector_3" d="M14.8269 85.4516C8.42831 79.053 3.88291 71.0429 1.69316 62.2933C1.56992 61.7957 1.68368 61.2696 1.99651 60.8667C2.31407 60.4591 2.7975 60.2268 3.30939 60.2268H15.4573C16.173 60.2268 16.8081 60.6818 17.0356 61.3596C18.7656 66.4785 21.5905 71.0144 25.4296 74.8536C29.2641 78.688 33.8048 81.5129 38.9237 83.2476C39.6015 83.4751 40.0564 84.1103 40.0564 84.826V96.9739C40.0564 97.4857 39.8194 97.9692 39.4166 98.2868C39.0089 98.6043 38.4828 98.7133 37.9852 98.5901C29.2356 96.4003 21.2303 91.8597 14.8269 85.4611V85.4516ZM5.49442 63.5541C7.70313 70.9101 11.7177 77.6311 17.1826 83.0959C22.6475 88.5608 29.3684 92.5754 36.7244 94.7841V85.9967C31.5771 84.0771 26.989 81.1242 23.074 77.2092C19.159 73.2942 16.2062 68.7062 14.2818 63.5588H5.49442V63.5541Z" fill="white"/>
<path id="Vector_4" d="M60.7771 98.1447C60.4643 97.8319 60.2889 97.4101 60.2889 96.9646V84.8167C60.2889 84.101 60.744 83.4659 61.4217 83.2383C66.5406 81.5083 71.0765 78.6835 74.9157 74.8443C78.7549 71.0051 81.575 66.4692 83.3097 61.3503C83.5372 60.6725 84.1724 60.2175 84.8881 60.2175H97.036C97.5479 60.2175 98.0313 60.4545 98.3489 60.8574C98.6665 61.2603 98.7755 61.7911 98.6522 62.284C96.4578 71.0336 91.9171 79.0389 85.5185 85.4423C79.1198 91.8457 71.1097 96.3863 62.3602 98.5761C61.8625 98.6993 61.3364 98.5855 60.9335 98.2727C60.8814 98.2253 60.8293 98.1827 60.7819 98.1353L60.7771 98.1447ZM63.621 85.9921V94.7795C70.977 92.5708 77.6979 88.5563 83.1628 83.0914C88.6277 77.6265 92.6375 70.9056 94.851 63.5495H86.0635C84.1439 68.6969 81.1911 73.2802 77.2713 77.1999C73.3563 81.1149 68.7683 84.0725 63.621 85.9921Z" fill="white"/>
<path id="Vector_5" d="M2.12995 39.5049C2.08255 39.4575 2.03517 39.4054 1.99725 39.3532C1.67969 38.9503 1.57067 38.4195 1.6939 37.9218C3.88365 29.1723 8.42431 21.1622 14.8277 14.7636C21.231 8.36494 29.2364 3.81955 37.9859 1.6298C38.4836 1.50657 39.0097 1.62032 39.4126 1.93314C39.8154 2.2507 40.0525 2.73416 40.0525 3.24605V15.394C40.0525 16.1096 39.5975 16.7448 38.9197 16.9723C33.8008 18.7023 29.2648 21.5271 25.4256 25.3663C21.5912 29.2007 18.7664 33.7414 17.0316 38.8603C16.8041 39.5381 16.169 39.9931 15.4533 39.9931H3.30542C2.85988 39.9931 2.43328 39.8177 2.1252 39.5096L2.12995 39.5049ZM36.7204 5.4358C29.3644 7.64451 22.6434 11.6591 17.1786 17.1239C11.7137 22.5888 7.70387 29.3098 5.49042 36.6658H14.2778C16.1974 31.5185 19.1503 26.9352 23.07 23.0154C26.985 19.1004 31.5731 16.1476 36.7204 14.2232V5.4358Z" fill="white"/>
</g>
<path id="Vector_6" d="M77.2675 23.0107C62.3279 8.07108 38.0131 8.06634 23.0735 23.0107C8.12921 37.955 8.13395 62.265 23.0735 77.2046C38.0131 92.1442 62.3231 92.1489 77.2675 77.2046C92.2118 62.2603 92.2071 37.9503 77.2675 23.0107Z" fill="white"/>
<g id="Group_2">
<path id="Vector_7" d="M63.9942 63.7852L36.4666 63.9678C35.307 63.9755 34.3731 64.9217 34.3808 66.0813L34.3873 67.0624C34.395 68.222 35.3413 69.1558 36.5009 69.1482L64.0286 68.9656C65.1882 68.9579 66.122 68.0116 66.1144 66.852L66.1078 65.8709C66.1002 64.7113 65.1539 63.7775 63.9942 63.7852Z" fill="#110A1D"/>
<path id="Vector_8" d="M40.2171 47.1689C39.9185 47.1689 39.6151 47.1026 39.3402 46.9699L37.1931 45.9319C36.2594 45.4769 35.8328 44.3725 36.2214 43.4104L37.2073 40.9552C37.5107 40.2063 38.2264 39.7181 39.0321 39.7134C39.3781 39.7134 39.7194 39.7987 40.0227 39.9741L42.5822 41.4339C43.0609 41.7041 43.4069 42.1733 43.5301 42.7136C43.6534 43.2539 43.5443 43.8227 43.2315 44.2777L41.8286 46.3111C41.4636 46.8419 40.8569 47.1642 40.2123 47.1642L40.2171 47.1689Z" fill="#110A1D"/>
<path id="Vector_9" d="M60.0319 47.0365C59.3873 47.0365 58.7759 46.7284 58.4062 46.2023L57.0175 44.2448C56.6952 43.7945 56.5814 43.2257 56.6952 42.6854C56.8089 42.1451 57.1502 41.6711 57.6289 41.3915L60.2689 39.8416C60.5675 39.6662 60.9088 39.5714 61.2548 39.5667C62.0605 39.5619 62.7857 40.0406 63.0985 40.7848L64.0939 43.1689C64.492 44.1263 64.0797 45.2401 63.1554 45.7046L60.9088 46.8279C60.6386 46.9606 60.3353 47.0365 60.0367 47.0365H60.0319Z" fill="#110A1D"/>
<path id="Vector_10" d="M38.0545 62.1276C36.8459 62.1371 35.7605 61.3787 35.3481 60.2412L30.7554 47.6003C30.4615 47.7425 30.1486 47.8516 29.8311 47.9321C29.4566 48.0269 29.0775 48.0743 28.6935 48.0743C28.4708 48.0743 28.2527 48.0648 28.0395 48.0364C25.6459 47.7331 23.8306 45.6808 23.8164 43.2635C23.7974 40.5903 25.9587 38.4006 28.6319 38.3816C31.3051 38.3626 33.4949 40.524 33.5091 43.1972C33.5091 43.8133 33.4048 44.4058 33.1868 44.9603C33.0683 45.2637 32.9214 45.5528 32.7508 45.8277L41.486 50.0555L48.1691 40.3723C47.8894 40.2538 47.6192 40.1069 47.3633 39.9315C46.8798 39.6044 46.458 39.1968 46.1167 38.7181C45.5385 37.9029 45.2257 36.9407 45.2209 35.9454C45.202 33.2722 47.3633 31.0824 50.0365 31.0635C50.155 31.0635 50.2782 31.0635 50.3967 31.073C52.7903 31.2341 54.7241 33.1537 54.8995 35.5472C54.98 36.68 54.6815 37.7654 54.0369 38.6897C53.6956 39.1731 53.2785 39.5855 52.7997 39.9125C52.5485 40.0879 52.2784 40.2348 51.9988 40.3533L58.8002 49.937L67.3934 45.6381C67.2322 45.33 67.1043 45.0077 67.0095 44.6712C66.8957 44.2636 66.8341 43.837 66.8341 43.4057C66.8341 43.2114 66.8435 43.017 66.8625 42.8275C67.1374 40.3912 69.1944 38.5428 71.6449 38.5285C74.3181 38.5096 76.5078 40.6709 76.5221 43.3441C76.541 45.8941 74.5598 48.0364 72.0146 48.2118L71.7112 48.2212C71.2183 48.2212 70.7349 48.1549 70.2657 48.0127C69.9623 47.9179 69.6684 47.7994 69.3935 47.6477L65.0804 60.0421C64.687 61.1844 63.6063 61.9522 62.3977 61.9617L38.0545 62.1228V62.1276Z" fill="#110A1D"/>
</g>
</g>
</svg>
