<svg width="100" height="100" viewBox="0 0 100 100" fill="none" xmlns="http://www.w3.org/2000/svg">
<g id="M">
<path id="Vector" d="M49.545 99.1234C22.2224 99.1234 -0.00012207 76.8906 -0.00012207 49.5783C-0.00012207 22.2661 22.2328 0.0332031 49.545 0.0332031C76.8573 0.0332031 99.0901 22.2661 99.0901 49.5783C99.0901 76.8906 76.8573 99.1234 49.545 99.1234ZM49.545 3.33272C24.0439 3.33272 3.29946 24.0772 3.29946 49.5783C3.29946 75.0795 24.0439 95.8239 49.545 95.8239C75.0462 95.8239 95.7906 75.0795 95.7906 49.5783C95.7906 24.0772 75.0462 3.33272 49.545 3.33272Z" fill="white"/>
<g id="Group">
<path id="Vector_2" d="M81.8731 14.2242L66.5349 29.5625L69.5525 32.5801L84.8908 17.2418L81.8731 14.2242Z" fill="white"/>
<path id="Vector_3" d="M29.0762 67.0231L13.738 82.3613L16.7556 85.3789L32.0938 70.0407L29.0762 67.0231Z" fill="white"/>
<path id="Vector_4" d="M70.0173 67.0203L66.9997 70.0378L82.3379 85.3761L85.3555 82.3585L70.0173 67.0203Z" fill="white"/>
<path id="Vector_5" d="M16.7673 13.7593L13.7497 16.7769L29.0806 32.1078L32.0982 29.0902L16.7673 13.7593Z" fill="white"/>
</g>
<g id="Group_2">
<path id="Vector_6" d="M61.6408 50.9107C62.6401 49.9115 62.6401 48.2981 61.6408 47.3093L59.5174 45.1963C58.5182 44.1971 56.9049 44.1971 55.9161 45.1963L54.7711 46.3413L53.4492 45.0194C52.45 44.0202 50.8367 44.0202 49.8478 45.0194L48.7029 46.1747L47.381 44.8424C46.3818 43.8432 44.7684 43.8432 43.7796 44.8424L36.7538 51.8683C36.7017 51.9203 36.7017 52.0036 36.7538 52.066C37.6905 53.0028 39.2206 53.0028 40.1678 52.066L44.6955 47.5383C45.1848 47.0491 45.9758 47.0491 46.465 47.5383L46.7981 47.8714C46.8606 47.9338 46.8606 48.0275 46.7981 48.0899L43.0198 51.8683C42.9677 51.9203 42.9677 52.0036 43.0198 52.066C43.9565 53.0028 45.4866 53.0028 46.4338 52.066L50.7742 47.7257C51.2634 47.2364 52.0545 47.2364 52.5437 47.7257L52.8767 48.0587C52.9288 48.1107 52.9288 48.194 52.8767 48.2565L49.2337 51.8995C49.1817 51.9515 49.1817 52.0348 49.2337 52.0973C50.1705 53.034 51.7006 53.034 52.6478 52.0973L56.8424 47.9026C57.3316 47.4134 58.1227 47.4134 58.6119 47.9026L59.3301 48.6208C59.6111 48.9018 59.6111 49.3702 59.3301 49.6512L59.2156 49.7657C58.9346 50.0468 58.4662 50.0468 58.1852 49.7657L57.2588 48.8394C57.2067 48.7873 57.1235 48.7873 57.061 48.8394L55.4581 50.4423C55.4061 50.4943 55.4061 50.5776 55.4581 50.6401L56.9049 52.0868C57.9042 53.0861 59.5174 53.0861 60.5063 52.0868L61.6513 50.9419L61.6408 50.9107Z" fill="white"/>
<path id="Vector_7" d="M49.5461 11.5764C28.5623 11.5764 11.5546 28.5841 11.5546 49.5679C11.5546 70.5517 28.5623 87.5594 49.5461 87.5594C70.5299 87.5594 87.5376 70.5517 87.5376 49.5679C87.5376 28.5841 70.5299 11.5764 49.5461 11.5764ZM51.097 23.3069C57.1964 23.6608 62.7338 26.0964 67.0222 29.906L61.5368 35.3914C58.6744 32.9662 55.0626 31.3945 51.097 31.0614V23.3069ZM48.0056 23.3069V31.0614C44.0399 31.3841 40.4281 32.9662 37.5657 35.3914L32.0804 29.906C36.3687 26.0964 41.9061 23.6608 48.0056 23.3069ZM29.8946 32.0918L35.3799 37.5772C32.9547 40.4396 31.383 44.0514 31.0499 48.0171H23.2955C23.6494 41.9176 26.085 36.3802 29.8946 32.0918ZM23.2955 51.1084H31.0499C31.3726 55.0741 32.9547 58.6859 35.3799 61.5483L29.8946 67.0336C26.085 62.7453 23.6494 57.2079 23.2955 51.1084ZM48.0056 75.8185C41.9061 75.4646 36.3687 73.029 32.0804 69.2194L37.5657 63.7341C40.4281 66.1593 44.0399 67.731 48.0056 68.0641V75.8185ZM33.5792 49.5575C33.5792 40.7414 40.73 33.5907 49.5461 33.5907C58.3622 33.5907 65.5129 40.7414 65.5129 49.5575C65.5129 58.3736 58.3622 65.5244 49.5461 65.5244C40.73 65.5244 33.5792 58.3736 33.5792 49.5575ZM51.097 75.8185V68.0641C55.0626 67.7414 58.6744 66.1593 61.5368 63.7341L67.0222 69.2194C62.7338 73.029 57.1964 75.4646 51.097 75.8185ZM69.2079 67.0336L63.7226 61.5483C66.1479 58.6859 67.7195 55.0741 68.0526 51.1084H75.8071C75.4532 57.2079 73.0175 62.7453 69.2079 67.0336ZM68.0526 48.0171C67.7299 44.0514 66.1479 40.4396 63.7226 37.5772L69.2079 32.0918C73.0175 36.3802 75.4532 41.9176 75.8071 48.0171H68.0526Z" fill="white"/>
</g>
</g>
</svg>
