<svg width="101" height="101" viewBox="0 0 101 101" fill="none" xmlns="http://www.w3.org/2000/svg">
<g id="Crown">
<g id="Group">
<path id="Vector" d="M15.4922 85.4798C-3.99755 65.9901 -3.99755 34.2813 15.4922 14.7916C34.9819 -4.69811 66.6906 -4.69811 86.1803 14.7916C105.67 34.2813 105.67 65.9901 86.1803 85.4798C66.6906 104.97 34.9819 104.97 15.4922 85.4798ZM83.8247 17.1473C65.6336 -1.04379 36.0388 -1.04379 17.8525 17.1473C-0.3385 35.3383 -0.3385 64.9331 17.8525 83.1194C36.0436 101.31 65.6384 101.31 83.8247 83.1194C102.016 64.9284 102.016 35.3336 83.8247 17.1473Z" fill="white"/>
<g id="Group_2">
<path id="Vector_2" d="M84.364 39.533C84.1886 39.3576 84.0465 39.1348 83.9659 38.8884C82.2359 33.7695 79.411 29.2336 75.5718 25.3944C71.7374 21.56 67.1967 18.7351 62.0778 17.0004C61.4001 16.7681 60.945 16.1377 60.945 15.422V3.27414C60.945 2.76225 61.182 2.27879 61.5849 1.96123C61.9925 1.64367 62.5186 1.53466 63.0115 1.65789C71.7611 3.84764 79.7712 8.38829 86.1698 14.7916C92.5684 21.195 97.1091 29.2004 99.2989 37.9499C99.4221 38.4476 99.3083 38.9737 98.9955 39.3813C98.678 39.7889 98.1945 40.0212 97.6826 40.0212H85.5347C85.0797 40.0212 84.6626 39.8363 84.3545 39.5282L84.364 39.533ZM77.9274 23.0388C81.8424 26.9538 84.7953 31.5418 86.7196 36.6892H95.5071C93.2984 29.3331 89.2838 22.6122 83.8189 17.1473C78.354 11.6824 71.6331 7.66786 64.2818 5.46389V14.2513C69.4292 16.1709 74.0172 19.1238 77.9322 23.0435L77.9274 23.0388Z" fill="white"/>
<path id="Vector_3" d="M15.4908 85.4797C9.09222 79.0811 4.54682 71.0709 2.35707 62.3214C2.23383 61.8238 2.34759 61.2976 2.66042 60.8948C2.97798 60.4871 3.46141 60.2549 3.9733 60.2549H16.1212C16.8369 60.2549 17.472 60.7099 17.6995 61.3877C19.4295 66.5066 22.2544 71.0425 26.0936 74.8817C29.928 78.7161 34.4687 81.541 39.5876 83.2757C40.2654 83.5032 40.7203 84.1383 40.7203 84.854V97.0019C40.7203 97.5138 40.4834 97.9973 40.0805 98.3148C39.6729 98.6324 39.1467 98.7414 38.6491 98.6182C29.8995 96.4284 21.8942 91.8878 15.4908 85.4892V85.4797ZM6.15833 63.5822C8.36704 70.9382 12.3816 77.6591 17.8465 83.124C23.3114 88.5889 30.0323 92.6035 37.3883 94.8122V86.0247C32.241 84.1051 27.6529 81.1523 23.7379 77.2373C19.8229 73.3223 16.8701 68.7343 14.9458 63.5869H6.15833V63.5822Z" fill="white"/>
<path id="Vector_4" d="M61.4411 98.1728C61.1282 97.86 60.9529 97.4382 60.9529 96.9926V84.8447C60.9529 84.129 61.4079 83.4939 62.0856 83.2664C67.2045 81.5364 71.7404 78.7115 75.5796 74.8724C79.4188 71.0332 82.2389 66.4973 83.9736 61.3784C84.2011 60.7006 84.8363 60.2456 85.552 60.2456H97.6999C98.2118 60.2456 98.6952 60.4826 99.0128 60.8855C99.3304 61.2883 99.4394 61.8192 99.3162 62.3121C97.1217 71.0616 92.581 79.067 86.1824 85.4704C79.7837 91.8737 71.7736 96.4144 63.0241 98.6041C62.5264 98.7274 62.0003 98.6136 61.5974 98.3008C61.5453 98.2534 61.4932 98.2108 61.4458 98.1634L61.4411 98.1728ZM64.2849 86.0202V94.8076C71.6409 92.5989 78.3618 88.5844 83.8267 83.1195C89.2916 77.6546 93.3014 70.9337 95.5149 63.5776H86.7274C84.8079 68.7249 81.855 73.3082 77.9352 77.228C74.0202 81.143 69.4322 84.1006 64.2849 86.0202Z" fill="white"/>
<path id="Vector_5" d="M2.79386 39.533C2.74646 39.4856 2.69908 39.4334 2.66116 39.3813C2.3436 38.9784 2.23458 38.4476 2.35781 37.9499C4.54756 29.2004 9.08822 21.1903 15.4916 14.7916C21.8949 8.39302 29.9003 3.84763 38.6498 1.65788C39.1475 1.53465 39.6736 1.64839 40.0765 1.96122C40.4794 2.27878 40.7164 2.76224 40.7164 3.27413V15.422C40.7164 16.1377 40.2614 16.7728 39.5836 17.0003C34.4647 18.7303 29.9287 21.5552 26.0896 25.3944C22.2551 29.2288 19.4303 33.7695 17.6955 38.8884C17.468 39.5661 16.8329 40.0212 16.1172 40.0212H3.96933C3.52379 40.0212 3.09719 39.8458 2.78911 39.5377L2.79386 39.533ZM37.3843 5.46387C30.0283 7.67258 23.3074 11.6871 17.8425 17.152C12.3776 22.6169 8.36778 29.3378 6.15433 36.6939H14.9418C16.8613 31.5466 19.8142 26.9632 23.7339 23.0435C27.6489 19.1285 32.237 16.1756 37.3843 14.2513V5.46387Z" fill="white"/>
</g>
<path id="Vector_6" d="M77.9315 23.0387C62.9919 8.09915 38.6772 8.09441 23.7376 23.0387C8.79327 37.9831 8.79801 62.2931 23.7376 77.2327C38.6772 92.1723 62.9872 92.177 77.9315 77.2327C92.8759 62.2884 92.8711 37.9783 77.9315 23.0387Z" fill="white"/>
<g id="Group_3">
<path id="Vector_7" d="M64.6544 63.8133L37.1267 63.9958C35.9671 64.0035 35.0333 64.9498 35.041 66.1094L35.0475 67.0905C35.0552 68.2501 36.0015 69.1839 37.1611 69.1762L64.6888 68.9937C65.8484 68.986 66.7822 68.0397 66.7745 66.8801L66.768 65.899C66.7603 64.7394 65.814 63.8056 64.6544 63.8133Z" fill="#110A1D"/>
<path id="Vector_8" d="M40.8772 47.1973C40.5786 47.1973 40.2753 47.1309 40.0004 46.9982L37.8533 45.9602C36.9195 45.5052 36.4929 44.4008 36.8816 43.4387L37.8675 40.9835C38.1708 40.2346 38.8865 39.7464 39.6923 39.7417C40.0383 39.7417 40.3795 39.827 40.6829 40.0024L43.2423 41.4622C43.721 41.7324 44.067 42.2016 44.1903 42.7419C44.3135 43.2823 44.2045 43.851 43.8917 44.3061L42.4887 46.3394C42.1238 46.8702 41.5171 47.1925 40.8725 47.1925L40.8772 47.1973Z" fill="#110A1D"/>
<path id="Vector_9" d="M60.6921 47.0645C60.0475 47.0645 59.4361 46.7565 59.0664 46.2304L57.6776 44.2729C57.3553 43.8226 57.2416 43.2538 57.3553 42.7135C57.4691 42.1732 57.8103 41.6992 58.2891 41.4195L60.929 39.8697C61.2277 39.6943 61.5689 39.5995 61.9149 39.5948C62.7207 39.59 63.4459 40.0687 63.7587 40.8129L64.754 43.1969C65.1522 44.1544 64.7398 45.2682 63.8156 45.7327L61.569 46.856C61.2988 46.9887 60.9954 47.0645 60.6968 47.0645H60.6921Z" fill="#110A1D"/>
<path id="Vector_10" d="M38.7146 62.1557C37.506 62.1651 36.4206 61.4068 36.0083 60.2693L31.4155 47.6284C31.1217 47.7706 30.8088 47.8796 30.4912 47.9602C30.1168 48.055 29.7376 48.1024 29.3537 48.1024C29.1309 48.1024 28.9129 48.0929 28.6996 48.0645C26.3061 47.7611 24.4908 45.7088 24.4766 43.2916C24.4576 40.6184 26.6189 38.4286 29.2921 38.4097C31.9653 38.3907 34.155 40.552 34.1693 43.2252C34.1693 43.8414 34.065 44.4339 33.8469 44.9884C33.7284 45.2918 33.5816 45.5809 33.4109 45.8558L42.1462 50.0836L48.8292 40.4004C48.5496 40.2819 48.2794 40.1349 48.0235 39.9596C47.54 39.6325 47.1182 39.2249 46.7769 38.7462C46.1987 37.931 45.8858 36.9688 45.8811 35.9735C45.8621 33.3003 48.0235 31.1105 50.6967 31.0916C50.8152 31.0916 50.9384 31.0915 51.0569 31.101C53.4504 31.2622 55.3842 33.1818 55.5596 35.5753C55.6402 36.7081 55.3416 37.7935 54.697 38.7178C54.3558 39.2012 53.9386 39.6136 53.4599 39.9406C53.2087 40.116 52.9386 40.2629 52.6589 40.3814L59.4604 49.9651L68.0535 45.6662C67.8924 45.3581 67.7644 45.0358 67.6696 44.6993C67.5559 44.2917 67.4943 43.8651 67.4943 43.4338C67.4943 43.2394 67.5037 43.0451 67.5227 42.8555C67.7976 40.4193 69.8546 38.5708 72.305 38.5566C74.9782 38.5377 77.168 40.699 77.1822 43.3722C77.2012 45.9221 75.22 48.0645 72.6747 48.2398L72.3714 48.2493C71.8785 48.2493 71.395 48.183 70.9258 48.0408C70.6225 47.946 70.3286 47.8275 70.0537 47.6758L65.7405 60.0702C65.3471 61.2125 64.2665 61.9803 63.0578 61.9898L38.7146 62.1509V62.1557Z" fill="#110A1D"/>
</g>
</g>
</g>
</svg>
