<svg width="101" height="222" viewBox="0 0 101 222" fill="none" xmlns="http://www.w3.org/2000/svg">
<g clip-path="url(#clip0_244_386)">
<path d="M15.4879 207.26C-4.00184 187.77 -4.00184 156.061 15.4879 136.572C34.9776 117.082 66.6863 117.082 86.176 136.572C105.666 156.061 105.666 187.77 86.176 207.26C66.6863 226.75 34.9776 226.75 15.4879 207.26ZM83.8204 138.927C65.6293 120.736 36.0345 120.736 17.8482 138.927C-0.342785 157.118 -0.342785 186.713 17.8482 204.899C36.0393 223.09 65.6341 223.09 83.8204 204.899C102.012 186.708 102.012 157.114 83.8204 138.927Z" fill="white"/>
<path d="M84.3638 161.313C84.1884 161.138 84.0462 160.915 83.9657 160.668C82.2357 155.55 79.4108 151.014 75.5716 147.174C71.7372 143.34 67.1965 140.515 62.0776 138.78C61.3998 138.548 60.9448 137.918 60.9448 137.202V125.054C60.9448 124.542 61.1818 124.059 61.5847 123.741C61.9923 123.424 62.5184 123.315 63.0113 123.438C71.7609 125.628 79.771 130.168 86.1696 136.572C92.5682 142.975 97.1089 150.98 99.2987 159.73C99.4219 160.228 99.3081 160.754 98.9953 161.161C98.6777 161.569 98.1943 161.801 97.6824 161.801H85.5345C85.0795 161.801 84.6624 161.616 84.3543 161.308L84.3638 161.313ZM77.9272 144.819C81.8422 148.734 84.7951 153.322 86.7194 158.469H95.5069C93.2982 151.113 89.2836 144.392 83.8187 138.927C78.3538 133.462 71.6329 129.448 64.2816 127.244V136.031C69.4289 137.951 74.017 140.904 77.932 144.824L77.9272 144.819Z" fill="white"/>
<path d="M15.4867 207.26C9.0881 200.861 4.5427 192.851 2.35295 184.101C2.22971 183.604 2.34347 183.078 2.6563 182.675C2.97386 182.267 3.45729 182.035 3.96918 182.035H16.1171C16.8328 182.035 17.4679 182.49 17.6954 183.168C19.4254 188.287 22.2503 192.823 26.0894 196.662C29.9239 200.496 34.4646 203.321 39.5835 205.056C40.2612 205.283 40.7162 205.918 40.7162 206.634V218.782C40.7162 219.294 40.4792 219.777 40.0764 220.095C39.6687 220.412 39.1426 220.521 38.645 220.398C29.8954 218.208 21.8901 213.668 15.4867 207.269V207.26ZM6.15421 185.362C8.36292 192.718 12.3774 199.439 17.8423 204.904C23.3072 210.369 30.0282 214.384 37.3842 216.592V207.805C32.2369 205.885 27.6488 202.932 23.7338 199.017C19.8188 195.102 16.866 190.514 14.9416 185.367H6.15421V185.362Z" fill="white"/>
<path d="M61.433 219.953C61.1202 219.64 60.9448 219.218 60.9448 218.773V206.625C60.9448 205.909 61.3998 205.274 62.0776 205.046C67.1965 203.316 71.7324 200.492 75.5716 196.652C79.4108 192.813 82.2309 188.277 83.9656 183.158C84.1931 182.481 84.8283 182.026 85.544 182.026H97.6919C98.2038 182.026 98.6872 182.263 99.0048 182.665C99.3223 183.068 99.4314 183.599 99.3081 184.092C97.1136 192.842 92.573 200.847 86.1743 207.25C79.7757 213.654 71.7656 218.194 63.0161 220.384C62.5184 220.507 61.9923 220.394 61.5894 220.081C61.5373 220.033 61.4852 219.991 61.4378 219.943L61.433 219.953ZM64.2769 207.8V216.588C71.6329 214.379 78.3538 210.364 83.8187 204.9C89.2836 199.435 93.2934 192.714 95.5069 185.358H86.7194C84.7998 190.505 81.847 195.088 77.9272 199.008C74.0122 202.923 69.4242 205.881 64.2769 207.8Z" fill="white"/>
<path d="M2.78974 161.313C2.74234 161.266 2.69496 161.213 2.65704 161.161C2.33948 160.758 2.23046 160.228 2.35369 159.73C4.54344 150.98 9.0841 142.97 15.4875 136.572C21.8908 130.173 29.8962 125.628 38.6457 123.438C39.1434 123.315 39.6695 123.428 40.0724 123.741C40.4752 124.059 40.7123 124.542 40.7123 125.054V137.202C40.7123 137.918 40.2572 138.553 39.5795 138.78C34.4606 140.51 29.9246 143.335 26.0854 147.174C22.251 151.009 19.4262 155.549 17.6914 160.668C17.4639 161.346 16.8288 161.801 16.1131 161.801H3.96521C3.51967 161.801 3.09307 161.626 2.78499 161.318L2.78974 161.313ZM37.3802 127.244C30.0242 129.453 23.3032 133.467 17.8383 138.932C12.3734 144.397 8.36366 151.118 6.15021 158.474H14.9376C16.8572 153.327 19.8101 148.743 23.7298 144.824C27.6448 140.909 32.2329 137.956 37.3802 136.031V127.244Z" fill="white"/>
<path d="M77.9311 144.819C62.9915 129.879 38.6768 129.874 23.7372 144.819C8.7929 159.763 8.79764 184.073 23.7372 199.013C38.6768 213.952 62.9868 213.957 77.9311 199.013C92.8754 184.068 92.8707 159.758 77.9311 144.819Z" fill="white"/>
<path d="M64.6501 185.593L37.1224 185.776C35.9628 185.784 35.029 186.73 35.0367 187.889L35.0432 188.871C35.0509 190.03 35.9972 190.964 37.1568 190.956L64.6844 190.774C65.844 190.766 66.7779 189.82 66.7702 188.66L66.7637 187.679C66.756 186.519 65.8097 185.586 64.6501 185.593Z" fill="#110A1D"/>
<path d="M40.873 168.977C40.5744 168.977 40.2711 168.911 39.9962 168.778L37.8491 167.74C36.9153 167.285 36.4887 166.181 36.8774 165.219L37.8633 162.764C38.1666 162.015 38.8823 161.526 39.6881 161.522C40.0341 161.522 40.3753 161.607 40.6787 161.782L43.2381 163.242C43.7168 163.512 44.0628 163.982 44.1861 164.522C44.3093 165.062 44.2003 165.631 43.8874 166.086L42.4845 168.119C42.1196 168.65 41.5129 168.973 40.8683 168.973L40.873 168.977Z" fill="#110A1D"/>
<path d="M60.6917 168.845C60.047 168.845 59.4357 168.537 59.066 168.01L57.6772 166.053C57.3549 165.603 57.2412 165.034 57.3549 164.494C57.4687 163.953 57.8099 163.479 58.2886 163.2L60.9286 161.65C61.2272 161.474 61.5685 161.38 61.9145 161.375C62.7203 161.37 63.4455 161.849 63.7583 162.593L64.7536 164.977C65.1518 165.934 64.7394 167.048 63.8152 167.513L61.5685 168.636C61.2984 168.769 60.9951 168.845 60.6965 168.845H60.6917Z" fill="#110A1D"/>
<path d="M38.7104 183.936C37.5018 183.945 36.4164 183.187 36.0041 182.049L31.4113 169.408C31.1174 169.551 30.8046 169.66 30.487 169.74C30.1126 169.835 29.7334 169.882 29.3495 169.882C29.1267 169.882 28.9087 169.873 28.6954 169.845C26.3018 169.541 24.4866 167.489 24.4723 165.072C24.4534 162.398 26.6147 160.209 29.2879 160.19C31.9611 160.171 34.1508 162.332 34.165 165.005C34.165 165.621 34.0607 166.214 33.8427 166.768C33.7242 167.072 33.5773 167.361 33.4067 167.636L42.142 171.864L48.825 162.18C48.5454 162.062 48.2752 161.915 48.0192 161.74C47.5358 161.413 47.1139 161.005 46.7727 160.526C46.1944 159.711 45.8816 158.749 45.8769 157.753C45.8579 155.08 48.0192 152.891 50.6924 152.872C50.8109 152.872 50.9342 152.872 51.0527 152.881C53.4462 153.042 55.38 154.962 55.5554 157.355C55.636 158.488 55.3374 159.574 54.6928 160.498C54.3515 160.981 53.9344 161.394 53.4557 161.721C53.2045 161.896 52.9343 162.043 52.6547 162.161L59.4562 171.745L68.0493 167.446C67.8881 167.138 67.7602 166.816 67.6654 166.479C67.5517 166.072 67.49 165.645 67.49 165.214C67.49 165.019 67.4995 164.825 67.5184 164.636C67.7933 162.199 69.8504 160.351 72.3008 160.337C74.974 160.318 77.1638 162.479 77.178 165.152C77.197 167.702 75.2157 169.845 72.6705 170.02L72.3672 170.029C71.8742 170.029 71.3908 169.963 70.9216 169.821C70.6182 169.726 70.3243 169.608 70.0494 169.456L65.7363 181.85C65.3429 182.992 64.2622 183.76 63.0536 183.77L38.7104 183.931V183.936Z" fill="#110A1D"/>
<path d="M100.411 51.0401V170.635C100.411 171.624 99.6094 172.415 98.631 172.415C97.6526 172.415 96.8511 171.614 96.8511 170.635V51.0401C96.8511 50.0513 97.6526 49.2603 98.631 49.2603C99.6094 49.2603 100.411 50.0617 100.411 51.0401Z" fill="white"/>
<path d="M4.86785 50.7799V170.375C4.86785 171.364 4.06642 172.155 3.08801 172.155C2.1096 172.155 1.30811 171.354 1.30811 170.375V50.7799C1.30811 49.7911 2.1096 49 3.08801 49C4.06642 49 4.86785 49.8015 4.86785 50.7799Z" fill="white"/>
</g>
<path d="M3 53C6.46392 -15.4955 95.5309 -15.0027 98.5 52.5001" stroke="white" stroke-width="3"/>
<defs>
<clipPath id="clip0_244_386">
<rect width="101" height="170" fill="white" transform="translate(0 52)"/>
</clipPath>
</defs>
</svg>