<svg width="100" height="100" viewBox="0 0 100 100" fill="none" xmlns="http://www.w3.org/2000/svg">
<g id="M">
<path id="Vector" d="M50.3966 99.6208C23.0739 99.6208 0.85144 77.3879 0.85144 50.0756C0.85144 22.7633 23.0843 0.530518 50.3966 0.530518C77.7088 0.530518 99.9417 22.7633 99.9417 50.0756C99.9417 77.3879 77.7088 99.6208 50.3966 99.6208ZM50.3966 3.83004C24.8954 3.83004 4.15096 24.5744 4.15096 50.0756C4.15096 75.5768 24.8954 96.3212 50.3966 96.3212C75.8977 96.3212 96.6422 75.5768 96.6422 50.0756C96.6422 24.5744 75.8977 3.83004 50.3966 3.83004Z" fill="#478BF9"/>
<g id="Group">
<path id="Vector_2" d="M82.7173 14.7288L67.379 30.0671L70.3966 33.0848L85.7349 17.7465L82.7173 14.7288Z" fill="#478BF9"/>
<path id="Vector_3" d="M29.9241 67.5206L14.5859 82.8589L17.6035 85.8765L32.9417 70.5382L29.9241 67.5206Z" fill="#478BF9"/>
<path id="Vector_4" d="M70.8615 67.5356L67.8438 70.5532L83.1821 85.8915L86.1997 82.8738L70.8615 67.5356Z" fill="#478BF9"/>
<path id="Vector_5" d="M17.5997 14.2671L14.5821 17.2847L29.913 32.6156L32.9306 29.598L17.5997 14.2671Z" fill="#478BF9"/>
</g>
<g id="Group_2">
<path id="Vector_6" d="M62.4807 51.4078C63.4799 50.4085 63.4799 48.7952 62.4807 47.8064L60.3573 45.6934C59.358 44.6942 57.7448 44.6942 56.7559 45.6934L55.6109 46.8384L54.2891 45.5164C53.2899 44.5172 51.6765 44.5172 50.6877 45.5164L49.5428 46.6718L48.2208 45.3395C47.2216 44.3403 45.6082 44.3403 44.6194 45.3395L37.5936 52.3653C37.5416 52.4174 37.5416 52.5007 37.5936 52.5631C38.5304 53.4999 40.0605 53.4999 41.0077 52.5631L45.5354 48.0354C46.0246 47.5462 46.8157 47.5462 47.3049 48.0354L47.638 48.3684C47.7004 48.4308 47.7004 48.5245 47.638 48.587L43.8596 52.3653C43.8076 52.4174 43.8076 52.5007 43.8596 52.5631C44.7964 53.4999 46.3265 53.4999 47.2737 52.5631L51.6141 48.2227C52.1033 47.7335 52.8943 47.7335 53.3835 48.2227L53.7166 48.5558C53.7687 48.6078 53.7687 48.6911 53.7166 48.7536L50.0736 52.3966C50.0216 52.4486 50.0216 52.5319 50.0736 52.5944C51.0104 53.5311 52.5404 53.5311 53.4876 52.5944L57.6823 48.3997C58.1715 47.9104 58.9625 47.9104 59.4517 48.3997L60.1699 49.1178C60.451 49.3989 60.451 49.8673 60.1699 50.1483L60.0555 50.2628C59.7744 50.5438 59.306 50.5438 59.025 50.2628L58.0986 49.3365C58.0466 49.2844 57.9633 49.2844 57.9009 49.3365L56.2979 50.9394C56.2459 50.9914 56.2459 51.0747 56.2979 51.1371L57.7448 52.5839C58.744 53.5832 60.3573 53.5832 61.3461 52.5839L62.4911 51.439L62.4807 51.4078Z" fill="#478BF9"/>
<path id="Vector_7" d="M50.3976 12.084C29.4138 12.084 12.4061 29.0917 12.4061 50.0755C12.4061 71.0593 29.4138 88.067 50.3976 88.067C71.3815 88.067 88.3892 71.0593 88.3892 50.0755C88.3892 29.0917 71.3815 12.084 50.3976 12.084ZM51.9485 23.8145C58.048 24.1684 63.5854 26.604 67.8737 30.4136L62.3884 35.8989C59.526 33.4737 55.9142 31.9021 51.9485 31.569V23.8145ZM48.8571 23.8145V31.569C44.8914 31.8916 41.2797 33.4737 38.4173 35.8989L32.9319 30.4136C37.2203 26.604 42.7577 24.1684 48.8571 23.8145ZM30.7461 32.5994L36.2314 38.0848C33.8062 40.9472 32.2346 44.5589 31.9015 48.5246H24.147C24.5009 42.4252 26.9366 36.8878 30.7461 32.5994ZM24.147 51.616H31.9015C32.2241 55.5817 33.8062 59.1935 36.2314 62.0559L30.7461 67.5412C26.9366 63.2529 24.5009 57.7155 24.147 51.616ZM48.8571 76.3261C42.7577 75.9722 37.2203 73.5366 32.9319 69.727L38.4173 64.2416C41.2797 66.6669 44.8914 68.2386 48.8571 68.5717V76.3261ZM34.4308 50.0651C34.4308 41.249 41.5815 34.0983 50.3976 34.0983C59.2138 34.0983 66.3645 41.249 66.3645 50.0651C66.3645 58.8812 59.2138 66.032 50.3976 66.032C41.5815 66.032 34.4308 58.8812 34.4308 50.0651ZM51.9485 76.3261V68.5717C55.9142 68.249 59.526 66.6669 62.3884 64.2416L67.8737 69.727C63.5854 73.5366 58.048 75.9722 51.9485 76.3261ZM70.0595 67.5412L64.5742 62.0559C66.9994 59.1935 68.5711 55.5817 68.9042 51.616H76.6586C76.3047 57.7155 73.8691 63.2529 70.0595 67.5412ZM68.9042 48.5246C68.5815 44.5589 66.9994 40.9472 64.5742 38.0848L70.0595 32.5994C73.8691 36.8878 76.3047 42.4252 76.6586 48.5246H68.9042Z" fill="#478BF9"/>
</g>
</g>
</svg>
