<svg width="100" height="100" viewBox="0 0 100 100" fill="none" xmlns="http://www.w3.org/2000/svg">
<g id="Shield">
<path id="Vector" d="M49.9825 99.9325C37.2839 99.9325 24.5958 95.1029 14.9262 85.4332C-4.40264 66.1044 -4.40264 34.6599 14.9262 15.3311C24.294 5.96332 36.7427 0.811035 49.9825 0.811035C63.2223 0.811035 75.671 5.96332 85.0387 15.3311C104.368 34.6599 104.368 66.1044 85.0387 85.4332C75.3795 95.0925 62.681 99.9325 49.9825 99.9325ZM17.5284 82.8311C35.4208 100.724 64.5337 100.724 82.4262 82.8311C100.319 64.9386 100.319 35.8257 82.4262 17.9333C73.7558 9.26286 62.2334 4.49573 49.9721 4.49573C37.7107 4.49573 26.1883 9.27327 17.5179 17.9333C-0.374513 35.8257 -0.374513 64.9386 17.5179 82.8311H17.5284Z" fill="#9DADF2"/>
<g id="Group">
<path id="Vector_2" d="M49.3268 68.9355C49.5037 69.3622 49.9201 69.6121 50.3572 69.6121C50.503 69.6121 50.6487 69.5808 50.7945 69.5288C54.2918 68.0612 57.4768 65.7921 59.9957 62.9609C60.4016 62.5029 60.36 61.7951 59.902 61.3892C59.444 60.9833 58.7362 61.0249 58.3303 61.4829C56.03 64.0747 53.126 66.1459 49.9305 67.4782C49.3685 67.7176 49.0978 68.3734 49.3372 68.9355H49.3268Z" fill="#9DADF2"/>
<path id="Vector_3" d="M68.8727 33.2441L50.387 25.8539C50.1164 25.7499 49.8249 25.7499 49.5543 25.8539L31.0685 33.2441C30.6418 33.4107 30.3711 33.8166 30.3711 34.2746V47.5143C30.3919 59.7341 38.1152 70.7776 49.5855 74.9827C49.7104 75.0243 49.8353 75.0452 49.9706 75.0452C50.1059 75.0452 50.2308 75.0243 50.3557 74.9827C61.826 70.7672 69.5493 59.7341 69.5701 47.5143V34.2746C69.5701 33.8166 69.2995 33.4107 68.8727 33.2441ZM67.3426 47.5143C67.3218 58.6307 60.348 68.7583 49.981 72.7448C39.614 68.7583 32.6298 58.6307 32.609 47.5143V35.0344L49.981 28.0918L67.3426 35.0344V47.5143Z" fill="#9DADF2"/>
<path id="Vector_4" d="M42.2583 34.9824C41.9877 34.8679 41.6859 34.8679 41.4048 34.9824L37.002 36.7414C36.5752 36.908 36.3046 37.3139 36.3046 37.7719V42.4662C36.3046 43.0803 36.8042 43.5799 37.4183 43.5799C38.0324 43.5799 38.532 43.0803 38.532 42.4662V38.5317L42.2271 37.0537C42.5081 36.9392 42.7163 36.731 42.8412 36.4499C42.9557 36.1793 42.9557 35.8775 42.8412 35.5964C42.7267 35.3154 42.5185 35.1073 42.2479 34.9824H42.2583Z" fill="#9DADF2"/>
<path id="Vector_5" d="M78.1258 22.2319C70.6108 14.7065 60.6081 10.5742 49.9705 10.5742C39.3328 10.5742 29.3406 14.7169 21.8151 22.2319C6.29584 37.7512 6.29584 63.0129 21.8151 78.5426C29.58 86.3074 39.77 90.1794 49.9705 90.1794C60.1709 90.1794 70.361 86.297 78.1258 78.5426C93.6451 63.0233 93.6451 37.7616 78.1258 22.2319ZM72.6197 47.5145C72.6509 61.639 63.6266 73.994 50.1682 78.272C50.0433 78.3136 49.908 78.3136 49.7727 78.272C36.3143 73.994 27.29 61.639 27.3213 47.5145V31.8911C27.3213 31.6309 27.4774 31.3915 27.7272 31.2874L49.7311 22.4921C49.8039 22.4609 49.8872 22.4505 49.9705 22.4505C50.0537 22.4505 50.137 22.4609 50.2098 22.4921L72.2137 31.2978C72.4635 31.3915 72.6197 31.6309 72.6197 31.9015V47.5249V47.5145Z" fill="#9DADF2"/>
</g>
</g>
</svg>
